Coordinates
version=1
nRows=14
nColumns=24
inDegrees=yes

Units are S.I. units (second, meters, Newtons, ...)
Angles are in degrees.

endheader
time	pelvis_tilt	pelvis_list	pelvis_rotation	pelvis_tx	pelvis_ty	pelvis_tz	hip_flexion_r	hip_adduction_r	hip_rotation_r	knee_angle_r	ankle_angle_r	subtalar_angle_r	mtp_angle_r	hip_flexion_l	hip_adduction_l	hip_rotation_l	knee_angle_l	ankle_angle_l	subtalar_angle_l	mtp_angle_l	lumbar_extension	lumbar_bending	lumbar_rotation
      0.75816667	      0.13151138	     -2.69874532	      7.53899747	     -0.51036902	      0.91365032	      0.32030718	     10.94522748	      9.94346358	     -1.67555808	    -19.04601484	      7.10206080	     -6.15328439	      4.91465194	     18.15421833	     -7.90969625	     -4.45805546	    -70.95019801	     -1.07987169	     -7.40722008	      1.93198049	     -5.66894127	      4.47266698	     -1.35900041
      0.76233333	      0.16641513	     -2.53226257	      7.33981278	     -0.50505900	      0.91487099	      0.32062765	     10.23080180	      9.84369469	     -1.48860890	    -18.49717793	      7.10815626	     -5.96209201	      4.91905052	     18.62851765	     -7.66621390	     -4.68249312	    -70.37765080	     -0.63817335	     -7.78466733	      1.90978438	     -5.74802531	      4.31319982	     -1.23780138
      0.76650000	      0.21622545	     -2.33882418	      7.09385063	     -0.49971396	      0.91610476	      0.32103366	      9.49425354	      9.72003077	     -1.26451722	    -17.95162003	      7.14424705	     -5.75639210	      4.93970110	     19.04018597	     -7.42356305	     -4.98232394	    -69.71480266	     -0.28118990	     -8.06916277	      1.85123574	     -5.82711363	      4.07981355	     -0.88647380
      0.77066667	      0.23978154	     -2.13558003	      6.82219164	     -0.49441499	      0.91725854	      0.32145684	      8.80602406	      9.57783943	     -1.01863569	    -17.44365664	      7.16747905	     -5.57099045	      4.95341442	     19.45762740	     -7.16433638	     -5.29411471	    -68.98786457	      0.11988760	     -8.29336909	      1.82508812	     -5.88643538	      3.85482912	     -0.72026627
      0.77483333	      0.31328393	     -1.93973699	      6.55501658	     -0.48907849	      0.91844942	      0.32188456	      8.04328928	      9.44307351	     -0.79130587	    -16.89101599	      7.21816075	     -5.35746234	      4.98213013	     19.80070412	     -6.92970916	     -5.61543845	    -68.19726455	      0.45333146	     -8.49245732	      1.77603381	     -6.00143166	      3.61733185	     -0.37409726
      0.77900000	      0.36850520	     -1.74643083	      6.26317228	     -0.48377719	      0.91956110	      0.32233287	      7.31469647	      9.30268847	     -0.55124746	    -16.35862150	      7.24059635	     -5.13665596	      5.01649451	     20.14508376	     -6.69990137	     -5.95376038	    -67.35137918	      0.80807596	     -8.63125536	      1.72466493	     -6.09501003	      3.39221783	     -0.07307026
      0.78316667	      0.42780976	     -1.55663436	      5.95935843	     -0.47847863	      0.92062765	      0.32279298	      6.58477349	      9.16027447	     -0.30863637	    -15.82818112	      7.26335283	     -4.91848302	      5.05469810	     20.46530233	     -6.48075908	     -6.30477058	    -66.44764160	      1.14786608	     -8.72604222	      1.67265814	     -6.18760417	      3.16988811	      0.22076678
      0.78733333	      0.49241543	     -1.36997100	      5.64365331	     -0.47319514	      0.92164632	      0.32326209	      5.85498590	      9.01416799	     -0.06915207	    -15.30295965	      7.28687949	     -4.68858797	      5.09561554	     20.76183388	     -6.26901438	     -6.66378252	    -65.48819705	      1.47314167	     -8.78300820	      1.62174232	     -6.28693135	      2.95216743	      0.51089037
      0.79150000	      0.55709374	     -1.20106771	      5.31568045	     -0.46793148	      0.92259933	      0.32373928	      5.12784269	      8.88049011	      0.18167512	    -14.77070288	      7.28055746	     -4.44116850	      5.16841857	     21.04643857	     -6.08052279	     -7.02601723	    -64.48527334	      1.79914298	     -8.80088266	      1.53197474	     -6.39399781	      2.76022576	      0.89132741
      0.79566667	      0.63308424	     -1.02285727	      4.98527965	     -0.46266547	      0.92351077	      0.32421648	      4.39485073	      8.73059671	      0.41836401	    -14.25493121	      7.32927510	     -4.22226409	      5.21866251	     21.29703872	     -5.88652574	     -7.39667633	    -63.42062328	      2.08308538	     -8.77791455	      1.47635713	     -6.49685472	      2.54546169	      1.14016155
      0.79983333	      0.71113637	     -0.85960801	      4.64045107	     -0.45742049	      0.92435720	      0.32470697	      3.66554673	      8.58931808	      0.66296009	    -13.73918070	      7.35536109	     -3.98095910	      5.27246944	     21.53113451	     -5.71332747	     -7.77266400	    -62.31152254	      2.36111404	     -8.72168578	      1.41870171	     -6.60945836	      2.35480748	      1.44657670
      0.80400000	      0.78659244	     -0.70748097	      4.28859075	     -0.45219477	      0.92512785	      0.32519571	      2.94745748	      8.45186172	      0.90660131	    -13.23330894	      7.38524055	     -3.74230841	      5.32967905	     21.75571653	     -5.55474186	     -8.15134941	    -61.15816701	      2.61945311	     -8.63565374	      1.35994406	     -6.71613115	      2.17409288	      1.76033129
      0.80816667	      0.86000767	     -0.57171438	      3.93421415	     -0.44698740	      0.92582006	      0.32567924	      2.23666378	      8.32398937	      1.15583914	    -12.72833420	      7.40726493	     -3.49037097	      5.40503725	     21.97225510	     -5.41145377	     -8.51775011	    -59.96603527	      2.86200493	     -8.52874383	      1.28360493	     -6.82724697	      2.01680925	      2.11579761
      0.81233333	      0.90945555	     -0.42709613	      3.55156139	     -0.44180512	      0.92641305	      0.32618421	      1.57984025	      8.17588069	      1.40632239	    -12.27774387	      7.42311009	     -3.25884847	      5.44901462	     22.19081200	     -5.26675044	     -8.91644835	    -58.71642159	      3.06614986	     -8.39354365	      1.24200552	     -6.90328345	      1.84642670	      2.32831694
